<?xml version="1.0"?>
<!-- Generated by SVGo and Plotinum VG -->
<svg width="7.874in" height="7.874in"
	xmlns="http://www.w3.org/2000/svg"
	xmlns:xlink="http://www.w3.org/1999/xlink">
<g transform="scale(1, -1) translate(0, -708.66)">
<path d="M0,0L708.66,0L708.66,708.66L0,708.66Z" style="fill:#FFFFFF" />
<text x="301.01" y="-694.22" transform="scale(1, -1)"
	style="font-family:Times;font-weight:normal;font-style:normal;font-size:12pt">ThreeBodyModel</text>
<text x="374.96" y="-4.8267" transform="scale(1, -1)"
	style="font-family:Times;font-weight:normal;font-style:normal;font-size:12pt">X</text>
<text x="85.377" y="-19.502" transform="scale(1, -1)"
	style="font-family:Times;font-weight:normal;font-style:normal;font-size:10pt">1</text>
<text x="391.31" y="-19.502" transform="scale(1, -1)"
	style="font-family:Times;font-weight:normal;font-style:normal;font-size:10pt">5</text>
<text x="697.25" y="-19.502" transform="scale(1, -1)"
	style="font-family:Times;font-weight:normal;font-style:normal;font-size:10pt">9</text>
<path d="M88.502,31.538L88.502,41.538" style="fill:none;stroke:#000000;stroke-width:0.625" />
<path d="M394.44,31.538L394.44,41.538" style="fill:none;stroke:#000000;stroke-width:0.625" />
<path d="M700.37,31.538L700.37,41.538" style="fill:none;stroke:#000000;stroke-width:0.625" />
<path d="M164.99,36.538L164.99,41.538" style="fill:none;stroke:#000000;stroke-width:0.625" />
<path d="M241.47,36.538L241.47,41.538" style="fill:none;stroke:#000000;stroke-width:0.625" />
<path d="M317.95,36.538L317.95,41.538" style="fill:none;stroke:#000000;stroke-width:0.625" />
<path d="M470.92,36.538L470.92,41.538" style="fill:none;stroke:#000000;stroke-width:0.625" />
<path d="M547.4,36.538L547.4,41.538" style="fill:none;stroke:#000000;stroke-width:0.625" />
<path d="M623.89,36.538L623.89,41.538" style="fill:none;stroke:#000000;stroke-width:0.625" />
<path d="M52.083,41.538L708.66,41.538" style="fill:none;stroke:#000000;stroke-width:0.625" />
<g transform="rotate(90)">
<text x="364.16" y="14.443" transform="scale(1, -1)"
	style="font-family:Times;font-weight:normal;font-style:normal;font-size:12pt">T</text>
</g>
<text x="25.52" y="-127.65" transform="scale(1, -1)"
	style="font-family:Times;font-weight:normal;font-style:normal;font-size:10pt">3</text>
<text x="25.52" y="-361.44" transform="scale(1, -1)"
	style="font-family:Times;font-weight:normal;font-style:normal;font-size:10pt">9</text>
<text x="19.27" y="-595.23" transform="scale(1, -1)"
	style="font-family:Times;font-weight:normal;font-style:normal;font-size:10pt">15</text>
<path d="M34.895,133.56L44.895,133.56" style="fill:none;stroke:#000000;stroke-width:0.625" />
<path d="M34.895,367.35L44.895,367.35" style="fill:none;stroke:#000000;stroke-width:0.625" />
<path d="M34.895,601.13L44.895,601.13" style="fill:none;stroke:#000000;stroke-width:0.625" />
<path d="M39.895,250.45L44.895,250.45" style="fill:none;stroke:#000000;stroke-width:0.625" />
<path d="M39.895,484.24L44.895,484.24" style="fill:none;stroke:#000000;stroke-width:0.625" />
<path d="M44.895,48.101L44.895,689.39" style="fill:none;stroke:#000000;stroke-width:0.625" />
<path d="M58.265,406.69L109.09,236.67L141.57,350.28L146.59,146.21L154.01,206.25L193.41,426.11L209.8,265.74L234.13,312.52L255.77,255.05L307.71,252.46L323.25,315.83L366.9,533.53L389.32,324.64L446.88,318.7L513.06,543.4" style="fill:none;stroke:#F15A60;stroke-width:1.25" />
<path d="M52.083,48.101L64.192,279.86L138.78,112.2L184.27,127.45L237.2,248.87L250.46,348.97L292.07,267.86L324.44,382.57L343.83,295.62L404.15,357.41L471.49,366.51L539.9,323.56L614.61,352.6L631.62,597.7L650.09,463.11" style="fill:none;stroke:#7AC36A;stroke-width:1.25;stroke-dasharray:7.5,2.5" />
<path d="M83.366,342.07L144.63,368.76L158.62,258.26L227.23,392.3L302.1,523.78L309.05,360.14L379.95,576.2L406.56,486.85L460.93,465.04L510.61,485.66L568.42,457.46L578.41,689.39L646.96,465.64L702.12,619.38L708.66,632.47" style="fill:none;stroke:#5A9BD4;stroke-width:1.25;stroke-dasharray:2.5,2.5" />
<path d="M683.66,84.905L708.66,84.905" style="fill:none;stroke:#F15A60;stroke-width:1.25" />
<text x="652.4" y="-77.822" transform="scale(1, -1)"
	style="font-family:Times;font-weight:normal;font-style:normal;font-size:12pt">First</text>
<path d="M683.66,70.183L708.66,70.183" style="fill:none;stroke:#7AC36A;stroke-width:1.25;stroke-dasharray:7.5,2.5" />
<text x="635.75" y="-63.101" transform="scale(1, -1)"
	style="font-family:Times;font-weight:normal;font-style:normal;font-size:12pt">Second</text>
<path d="M683.66,55.461L708.66,55.461" style="fill:none;stroke:#5A9BD4;stroke-width:1.25;stroke-dasharray:2.5,2.5" />
<text x="646.59" y="-48.379" transform="scale(1, -1)"
	style="font-family:Times;font-weight:normal;font-style:normal;font-size:12pt">Third</text>
</g>
</svg>
